{
  "accessors": [
    {
      "bufferView": 2,
      "componentType": 5126,
      "count": 65532,
      "max": [
        1831.5552978515625,
        74.1912612915039,
        1134.522216796875
      ],
      "min": [
        -1831.555419921875,
        1.9888168573379517,
        -1134.5224609375
      ],
      "type": "VEC3"
    },
    {
      "bufferView": 2,
      "byteOffset": 786384,
      "componentType": 5126,
      "count": 65532,
      "max": [
        0.4845089018344879,
        1.0,
        0.650179922580719
      ],
      "min": [
        -0.589570939540863,
        0.7396320700645447,
        -0.6685957312583923
      ],
      "type": "VEC3"
    },
    {
      "bufferView": 1,
      "componentType": 5126,
      "count": 65532,
      "max": [
        0.9997574687004089,
        0.99952632188797
      ],
      "min": [
        0.00025337113765999675,
        0.0003876686096191406
      ],
      "type": "VEC2"
    },
    {
      "bufferView": 1,
      "byteOffset": 524256,
      "componentType": 5126,
      "count": 65532,
      "max": [
        0.9997806549072266,
        0.9995805621147156
      ],
      "min": [
        0.00026115108630619943,
        0.000333249568939209
      ],
      "type": "VEC2"
    },
    {
      "bufferView": 0,
      "componentType": 5125,
      "count": 357501,
      "type": "SCALAR"
    },
    {
      "bufferView": 2,
      "byteOffset": 1572768,
      "componentType": 5126,
      "count": 52864,
      "max": [
        1831.5546875,
        74.1912612915039,
        1090.2862548828125
      ],
      "min": [
        -1831.5546875,
        1.9991203546524048,
        -1129.6641845703125
      ],
      "type": "VEC3"
    },
    {
      "bufferView": 2,
      "byteOffset": 2207136,
      "componentType": 5126,
      "count": 52864,
      "max": [
        0.4857064485549927,
        1.0,
        0.6544130444526672
      ],
      "min": [
        -0.5671873092651367,
        0.6808003783226013,
        -0.7202003598213196
      ],
      "type": "VEC3"
    },
    {
      "bufferView": 1,
      "byteOffset": 1048512,
      "componentType": 5126,
      "count": 52864,
      "max": [
        0.9997050166130066,
        0.9799937009811401
      ],
      "min": [
        0.0002632019459269941,
        0.0004939436912536621
      ],
      "type": "VEC2"
    },
    {
      "bufferView": 1,
      "byteOffset": 1471424,
      "componentType": 5126,
      "count": 52864,
      "max": [
        0.999728262424469,
        0.9800457954406738
      ],
      "min": [
        0.0002709820691961795,
        0.00043964385986328125
      ],
      "type": "VEC2"
    },
    {
      "bufferView": 0,
      "byteOffset": 1430004,
      "componentType": 5125,
      "count": 271644,
      "type": "SCALAR"
    }
  ],
  "asset": {
    "extras": {
      "author": "sionwill (https://sketchfab.com/sionwill)",
      "license": "CC-BY-4.0 (http://creativecommons.org/licenses/by/4.0/)",
      "source": "https://sketchfab.com/3d-models/skomer-island-33f75dec169049edb59d171529efb042",
      "title": "Skomer Island"
    },
    "generator": "Sketchfab-16.53.0",
    "version": "2.0"
  },
  "bufferViews": [
    {
      "buffer": 0,
      "byteLength": 2516580,
      "name": "floatBufferViews",
      "target": 34963
    },
    {
      "buffer": 0,
      "byteLength": 1894336,
      "byteOffset": 2516580,
      "byteStride": 8,
      "name": "floatBufferViews",
      "target": 34962
    },
    {
      "buffer": 0,
      "byteLength": 2841504,
      "byteOffset": 4410916,
      "byteStride": 12,
      "name": "floatBufferViews",
      "target": 34962
    }
  ],
  "buffers": [
    {
      "byteLength": 7252420,
      "uri": "scene.bin"
    }
  ],
  "extensionsUsed": [
    "KHR_materials_specular"
  ],
  "images": [
    {
      "uri": "textures/rastMat_baseColor.png"
    },
    {
      "uri": "textures/rastMat_metallicRoughness.png"
    }
  ],
  "materials": [
    {
      "doubleSided": true,
      "extensions": {
        "KHR_materials_specular": {
          "specularColorFactor": [
            1.0,
            1.0,
            1.0
          ],
          "specularFactor": 0.15152157405271485
        }
      },
      "name": "rastMat",
      "pbrMetallicRoughness": {
        "baseColorTexture": {
          "index": 0
        },
        "metallicFactor": 0.31549283657070615,
        "metallicRoughnessTexture": {
          "index": 1,
          "texCoord": 1
        },
        "roughnessFactor": 0.5
      }
    }
  ],
  "meshes": [
    {
      "name": "Object_0",
      "primitives": [
        {
          "attributes": {
            "NORMAL": 1,
            "POSITION": 0,
            "TEXCOORD_0": 2,
            "TEXCOORD_1": 3
          },
          "indices": 4,
          "material": 0,
          "mode": 4
        }
      ]
    },
    {
      "name": "Object_1",
      "primitives": [
        {
          "attributes": {
            "NORMAL": 6,
            "POSITION": 5,
            "TEXCOORD_0": 7,
            "TEXCOORD_1": 8
          },
          "indices": 9,
          "material": 0,
          "mode": 4
        }
      ]
    }
  ],
  "nodes": [
    {
      "children": [
        1
      ],
      "matrix": [
        0.002610675059258938,
        0.0,
        0.0,
        0.0,
        0.0,
        5.7968631212078355e-19,
        -0.002610675059258938,
        0.0,
        0.0,
        0.002610675059258938,
        5.7968631212078355e-19,
        0.0,
        0.0,
        0.0,
        0.0,
        1.0
      ],
      "name": "Sketchfab_model"
    },
    {
      "children": [
        2
      ],
      "name": "root"
    },
    {
      "children": [
        3
      ],
      "matrix": [
        1.0,
        0.0,
        0.0,
        0.0,
        0.0,
        2.220446049250313e-16,
        1.0,
        0.0,
        0.0,
        -1.0,
        2.220446049250313e-16,
        0.0,
        0.0,
        0.0,
        0.0,
        1.0
      ],
      "name": "GLTF_SceneRootNode"
    },
    {
      "children": [
        4,
        5
      ],
      "name": "skomer_nodata_seaValue2_2mres_0"
    },
    {
      "mesh": 0,
      "name": "Object_4"
    },
    {
      "mesh": 1,
      "name": "Object_5"
    }
  ],
  "samplers": [
    {
      "magFilter": 9729,
      "minFilter": 9987,
      "wrapS": 33648,
      "wrapT": 33648
    },
    {
      "magFilter": 9729,
      "minFilter": 9987,
      "wrapS": 10497,
      "wrapT": 10497
    }
  ],
  "scene": 0,
  "scenes": [
    {
      "name": "Sketchfab_Scene",
      "nodes": [
        0
      ]
    }
  ],
  "textures": [
    {
      "sampler": 0,
      "source": 0
    },
    {
      "sampler": 1,
      "source": 1
    }
  ]
}
