{
  "accessors": [
    {
      "bufferView": 2,
      "componentType": 5126,
      "count": 108,
      "max": [
        2.0033152103424072,
        2.25,
        6.1277546882629395
      ],
      "min": [
        -0.0029267072677612305,
        0.0,
        -0.0172579288482666
      ],
      "type": "VEC3"
    },
    {
      "bufferView": 2,
      "byteOffset": 1296,
      "componentType": 5126,
      "count": 108,
      "max": [
        0.9984497427940369,
        0.9999935626983643,
        0.9982286691665649
      ],
      "min": [
        -0.9984435439109802,
        -0.9999929666519165,
        -0.9999078512191772
      ],
      "type": "VEC3"
    },
    {
      "bufferView": 3,
      "componentType": 5126,
      "count": 108,
      "max": [
        0.999697744846344,
        0.49540042877197266,
        0.9999996423721313,
        1.0
      ],
      "min": [
        -0.9999939799308777,
        -0.45207616686820984,
        -0.9999995231628418,
        1.0
      ],
      "type": "VEC4"
    },
    {
      "bufferView": 1,
      "componentType": 5126,
      "count": 108,
      "max": [
        1.9317313432693481,
        0.9851901531219482
      ],
      "min": [
        -1.1490658521652222,
        0.01972442865371704
      ],
      "type": "VEC2"
    },
    {
      "bufferView": 1,
      "byteOffset": 864,
      "componentType": 5126,
      "count": 108,
      "max": [
        1.9317313432693481,
        0.9851901531219482
      ],
      "min": [
        -1.1490658521652222,
        0.01972442865371704
      ],
      "type": "VEC2"
    },
    {
      "bufferView": 1,
      "byteOffset": 1728,
      "componentType": 5126,
      "count": 108,
      "max": [
        1.9317313432693481,
        0.9851901531219482
      ],
      "min": [
        -1.1490658521652222,
        0.01972442865371704
      ],
      "type": "VEC2"
    },
    {
      "bufferView": 1,
      "byteOffset": 2592,
      "componentType": 5126,
      "count": 108,
      "max": [
        1.9317313432693481,
        0.9851901531219482
      ],
      "min": [
        -1.1490658521652222,
        0.01972442865371704
      ],
      "type": "VEC2"
    },
    {
      "bufferView": 0,
      "componentType": 5125,
      "count": 516,
      "type": "SCALAR"
    },
    {
      "bufferView": 2,
      "byteOffset": 2592,
      "componentType": 5126,
      "count": 3972,
      "max": [
        2.089003562927246,
        7.288482666015625,
        6.114593505859375
      ],
      "min": [
        -0.08880925178527832,
        2.1739158630371094,
        -0.04044961929321289
      ],
      "type": "VEC3"
    },
    {
      "bufferView": 2,
      "byteOffset": 50256,
      "componentType": 5126,
      "count": 3972,
      "max": [
        1.0,
        0.9999929666519165,
        1.0
      ],
      "min": [
        -1.0,
        -1.0,
        -0.9999972581863403
      ],
      "type": "VEC3"
    },
    {
      "bufferView": 3,
      "byteOffset": 1728,
      "componentType": 5126,
      "count": 3972,
      "max": [
        0.9999945163726807,
        0.9513347148895264,
        0.9999926090240479,
        1.0
      ],
      "min": [
        -0.9999961256980896,
        -0.953711748123169,
        -0.9999951124191284,
        -1.0
      ],
      "type": "VEC4"
    },
    {
      "bufferView": 1,
      "byteOffset": 3456,
      "componentType": 5126,
      "count": 3972,
      "max": [
        0.995364785194397,
        0.998046875
      ],
      "min": [
        0.001953125,
        0.001953125
      ],
      "type": "VEC2"
    },
    {
      "bufferView": 1,
      "byteOffset": 35232,
      "componentType": 5126,
      "count": 3972,
      "max": [
        0.995364785194397,
        0.998046875
      ],
      "min": [
        0.001953125,
        0.001953125
      ],
      "type": "VEC2"
    },
    {
      "bufferView": 1,
      "byteOffset": 67008,
      "componentType": 5126,
      "count": 3972,
      "max": [
        0.995364785194397,
        0.998046875
      ],
      "min": [
        0.001953125,
        0.001953125
      ],
      "type": "VEC2"
    },
    {
      "bufferView": 1,
      "byteOffset": 98784,
      "componentType": 5126,
      "count": 3972,
      "max": [
        0.995364785194397,
        0.998046875
      ],
      "min": [
        0.001953125,
        0.001953125
      ],
      "type": "VEC2"
    },
    {
      "bufferView": 1,
      "byteOffset": 130560,
      "componentType": 5126,
      "count": 3972,
      "max": [
        0.995364785194397,
        0.998046875
      ],
      "min": [
        0.001953125,
        0.001953125
      ],
      "type": "VEC2"
    },
    {
      "bufferView": 0,
      "byteOffset": 2064,
      "componentType": 5125,
      "count": 14766,
      "type": "SCALAR"
    }
  ],
  "asset": {
    "extras": {
      "author": "feivelyn (https://sketchfab.com/feivelyn)",
      "license": "CC-BY-4.0 (http://creativecommons.org/licenses/by/4.0/)",
      "source": "https://sketchfab.com/3d-models/griffon-statue-2cd29b9448f6425e9008aa26aa9bc321",
      "title": "Griffon statue"
    },
    "generator": "Sketchfab-12.65.0",
    "version": "2.0"
  },
  "bufferViews": [
    {
      "buffer": 0,
      "byteLength": 61128,
      "name": "floatBufferViews",
      "target": 34963
    },
    {
      "buffer": 0,
      "byteLength": 162336,
      "byteOffset": 61128,
      "byteStride": 8,
      "name": "floatBufferViews",
      "target": 34962
    },
    {
      "buffer": 0,
      "byteLength": 97920,
      "byteOffset": 223464,
      "byteStride": 12,
      "name": "floatBufferViews",
      "target": 34962
    },
    {
      "buffer": 0,
      "byteLength": 65280,
      "byteOffset": 321384,
      "byteStride": 16,
      "name": "floatBufferViews",
      "target": 34962
    }
  ],
  "buffers": [
    {
      "byteLength": 386664,
      "uri": "scene.bin"
    }
  ],
  "images": [
    {
      "uri": "textures/Greif_2_mt_baseColor.png"
    },
    {
      "uri": "textures/Greif_2_mt_metallicRoughness.png"
    },
    {
      "uri": "textures/Greif_2_mt_normal.png"
    },
    {
      "uri": "textures/greif_1_mt_baseColor.png"
    },
    {
      "uri": "textures/greif_1_mt_metallicRoughness.png"
    },
    {
      "uri": "textures/greif_1_mt_normal.png"
    }
  ],
  "materials": [
    {
      "name": "Greif_2_mt",
      "normalTexture": {
        "index": 2
      },
      "occlusionTexture": {
        "index": 1
      },
      "pbrMetallicRoughness": {
        "baseColorTexture": {
          "index": 0
        },
        "metallicFactor": 0.0,
        "metallicRoughnessTexture": {
          "index": 1
        }
      }
    },
    {
      "name": "greif_1_mt",
      "normalTexture": {
        "index": 5
      },
      "occlusionTexture": {
        "index": 4
      },
      "pbrMetallicRoughness": {
        "baseColorTexture": {
          "index": 3
        },
        "metallicRoughnessTexture": {
          "index": 4
        }
      }
    }
  ],
  "meshes": [
    {
      "name": "greif_statue_Greif_2_mt_0",
      "primitives": [
        {
          "attributes": {
            "NORMAL": 1,
            "POSITION": 0,
            "TANGENT": 2,
            "TEXCOORD_0": 3,
            "TEXCOORD_1": 4,
            "TEXCOORD_2": 5,
            "TEXCOORD_3": 6
          },
          "indices": 7,
          "material": 0,
          "mode": 4
        }
      ]
    },
    {
      "name": "greif_statue_greif_1_mt_0",
      "primitives": [
        {
          "attributes": {
            "NORMAL": 9,
            "POSITION": 8,
            "TANGENT": 10,
            "TEXCOORD_0": 11,
            "TEXCOORD_1": 12,
            "TEXCOORD_2": 13,
            "TEXCOORD_3": 14,
            "TEXCOORD_4": 15
          },
          "indices": 16,
          "material": 1,
          "mode": 4
        }
      ]
    }
  ],
  "nodes": [
    {
      "children": [
        1
      ],
      "matrix": [
        1.0,
        0.0,
        0.0,
        0.0,
        0.0,
        2.220446049250313e-16,
        -1.0,
        0.0,
        0.0,
        1.0,
        2.220446049250313e-16,
        0.0,
        0.0,
        0.0,
        0.0,
        1.0
      ],
      "name": "Sketchfab_model"
    },
    {
      "children": [
        2
      ],
      "matrix": [
        0.009999999776482582,
        0.0,
        0.0,
        0.0,
        0.0,
        0.0,
        0.009999999776482582,
        0.0,
        0.0,
        -0.009999999776482582,
        0.0,
        0.0,
        0.0,
        0.0,
        0.0,
        1.0
      ],
      "name": "bed84610a7ed4fc78099a0c80c2517e2.fbx"
    },
    {
      "children": [
        3
      ],
      "name": "RootNode"
    },
    {
      "children": [
        4,
        5
      ],
      "name": "greif_statue"
    },
    {
      "mesh": 0,
      "name": "greif_statue_Greif_2_mt_0"
    },
    {
      "mesh": 1,
      "name": "greif_statue_greif_1_mt_0"
    }
  ],
  "samplers": [
    {
      "magFilter": 9729,
      "minFilter": 9987,
      "wrapS": 10497,
      "wrapT": 10497
    }
  ],
  "scene": 0,
  "scenes": [
    {
      "name": "Sketchfab_Scene",
      "nodes": [
        0
      ]
    }
  ],
  "textures": [
    {
      "sampler": 0,
      "source": 0
    },
    {
      "sampler": 0,
      "source": 1
    },
    {
      "sampler": 0,
      "source": 2
    },
    {
      "sampler": 0,
      "source": 3
    },
    {
      "sampler": 0,
      "source": 4
    },
    {
      "sampler": 0,
      "source": 5
    }
  ]
}
